<svg version="1.2" xmlns="http://www.w3.org/2000/svg" viewBox="0 0 127 127" width="127" height="127"><style>.a{opacity:.4;fill:#a3bbc8}.b{fill:#a3bbc8}.c{fill:#fff}</style><path class="a" d="m63.5 0c35.1 0 63.5 28.4 63.5 63.5 0 35.1-28.4 63.5-63.5 63.5-35.1 0-63.5-28.4-63.5-63.5 0-35.1 28.4-63.5 63.5-63.5z"/><path class="b" d="m63 14c27.1 0 49 21.9 49 49 0 27.1-21.9 49-49 49-27.1 0-49-21.9-49-49 0-27.1 21.9-49 49-49z"/><path class="c" d="m73.7 64.7l-16.1 9.8c-0.5 0.3-1 0.5-1.6 0.5q-0.8 0-1.4-0.3c-1-0.5-1.6-1.4-1.6-2.4v-19.6c0-1 0.6-1.9 1.6-2.4 0.9-0.5 2.1-0.4 3 0.2l16.1 9.8c0.8 0.5 1.3 1.3 1.3 2.2 0 0.9-0.5 1.7-1.3 2.2z"/></svg>